<?xml version="1.0" encoding="UTF-8" standalone="no"?>
<!-- Created with Inkscape (http://www.inkscape.org/) -->

<svg
   width="98.20977mm"
   height="137.18501mm"
   viewBox="0 0 98.20977 137.18501"
   version="1.1"
   id="svg1"
   xml:space="preserve"
   xmlns="http://www.w3.org/2000/svg"
   xmlns:svg="http://www.w3.org/2000/svg"><defs
     id="defs1" /><g
     id="layer1"
     transform="translate(-55.875731,-79.798619)"><path
       style="fill:#002a66;fill-opacity:1;stroke:#ffffff;stroke-width:0.861606;stroke-miterlimit:4.3;paint-order:stroke markers fill"
       d="m 387.91353,677.98391 c -4.97565,-1.76209 -12.81346,-10.01864 -14.55872,-15.33653 -0.8562,-2.60888 -1.40227,-13.96606 -1.78774,-37.18172 l -0.55501,-33.4255 -2.50742,-0.0211 c -4.15181,-0.035 -9.96225,-3.27436 -14.25049,-7.94478 -6.98017,-7.60228 -7.27807,-8.91308 -7.75525,-34.12373 l -0.42344,-22.37098 -2.54363,-0.52133 c -1.399,-0.28673 -4.0586,-0.92259 -5.91023,-1.41302 -1.85163,-0.49043 -6.03588,-1.59809 -9.29834,-2.46146 -3.95893,-1.04769 -6.8381,-2.51529 -8.65696,-4.41271 l -2.72522,-2.84295 -0.30839,-26.28097 -0.30839,-26.28097 -22.77685,-0.40821 c -21.21629,-0.38024 -23.1229,-0.56063 -27.82761,-2.63282 -6.65315,-2.93037 -15.82806,-12.60835 -17.49677,-18.45611 -0.82197,-2.88048 -1.36042,-15.94813 -1.70384,-41.35053 l -0.5021,-37.13916 -7.71923,-0.59527 c -9.22617,-0.71147 -14.57749,-3.0417 -19.5014,-8.49188 -5.83953,-6.46366 -6.30774,-8.53338 -6.43683,-28.4537 l -0.1157,-17.85499 2.81148,-2.25045 c 1.54631,-1.23774 4.32645,-2.57685 6.17808,-2.9758 1.85163,-0.39895 81.4957,-0.72536 176.98682,-0.72536 162.77557,0 173.81019,0.10394 176.66142,1.66408 6.59744,3.60999 7.05868,5.0655 7.05784,22.27229 -7.4e-4,15.05568 -0.0797,15.66787 -2.75065,21.31359 -4.73217,10.0028 -12.13117,14.65415 -24.72435,15.54286 l -8.11398,0.57261 v 37.33456 c 0,35.00843 -0.12014,37.65566 -1.92827,42.48831 -2.38824,6.38315 -9.05101,13.26839 -16.24615,16.78866 -5.15628,2.52272 -5.67546,2.57754 -28.1672,2.97407 -12.60276,0.22218 -22.99869,0.45835 -23.10209,0.5248 -0.1034,0.0665 -0.42804,12.45701 -0.72141,27.53455 l -0.53342,27.41372 -5.29037,2.63799 c -2.9097,1.4509 -7.45461,3.09524 -10.09979,3.6541 -10.66483,2.25318 -12.12714,2.62867 -12.78311,3.28237 -0.37581,0.37451 -0.89971,11.14249 -1.16422,23.92884 -0.52751,25.49865 -0.40199,24.92491 -7.02488,32.1099 -4.51812,4.90159 -10.21651,7.971 -14.7982,7.971 h -3.18593 v 34.87933 34.87932 l -3.12613,4.75853 c -7.31854,11.14009 -18.81689,15.48118 -30.26593,11.42657 z m 11.941,-19.37436 c 0.84945,-0.53998 1.22952,-9.27503 1.44282,-33.16041 0.31935,-35.75815 0.74748,-33.40898 -6.08886,-33.40898 h -3.81641 l 0.28801,32.74004 c 0.24491,27.84018 0.50394,32.87642 1.73084,33.65125 1.73866,1.09803 4.86071,1.18432 6.4436,0.1781 z m 25.41992,-87.95756 c 0.73052,-1.36498 1.31829,-9.10634 1.60919,-21.19402 l 0.45828,-19.04355 -4.22052,0.75396 c -2.32129,0.41469 -16.01564,0.73985 -30.43189,0.72259 l -26.21136,-0.0314 v 18.36383 c 0,13.19838 0.3382,18.81285 1.20236,19.96019 1.40479,1.86517 5.51146,2.14182 36.03684,2.42772 20.23079,0.18949 20.4161,0.17264 21.5571,-1.95934 z m 10.28309,-61.25803 c 4.39983,-0.65557 10.89256,-1.91475 14.42827,-2.79817 l 6.42858,-1.60621 0.30609,-3.73383 c 0.39413,-4.80769 -0.42229,-5.50986 -5.11636,-4.40037 -12.47449,2.94848 -23.75129,3.98793 -48.63964,4.48345 -27.79872,0.55345 -38.05244,-0.11182 -56.03521,-3.63559 -5.197,-1.01837 -9.63369,-1.85157 -9.85932,-1.85157 -0.22563,0 -0.41023,2.12079 -0.41023,4.71287 v 4.71287 l 6.97366,1.50537 c 3.83552,0.82795 10.65217,1.98888 15.1481,2.57983 4.49594,0.59096 8.3778,1.27783 8.62635,1.52639 0.94982,0.94982 60.51038,-0.35679 68.14971,-1.49504 z m -7.80657,-28.82814 c 2.53896,-0.47166 10.13511,-1.87247 16.88033,-3.11288 l 12.26403,-2.25532 v -6.02502 -6.02502 h -60.11781 -60.1178 v 6.25225 c 0,5.92198 0.11944,6.25226 2.26118,6.25226 1.24364,0 3.51609,0.38835 5.04989,0.863 1.5338,0.47466 6.03508,1.38332 10.00286,2.01926 3.96777,0.63593 8.94552,1.49977 11.06167,1.91963 5.3676,1.06499 57.08839,1.15722 62.71565,0.11184 z m 93.33268,-39.13366 c 4.73695,-0.96163 5.07959,-3.48741 5.73266,-42.25805 l 0.60745,-36.06256 H 396.93294 266.44212 v 35.1397 c 0,36.16218 0.36846,40.07924 3.98986,42.41508 2.35344,1.518 243.31992,2.25424 250.65167,0.76583 z m 39.03616,-100.20349 c 0.22898,-0.39678 0.71987,-4.72526 1.09086,-9.61885 l 0.67454,-8.89743 H 396.84973 231.81426 v 8.09735 c 0,4.45354 0.26274,8.78202 0.58386,9.61885 0.52922,1.37914 15.86829,1.52149 163.9446,1.52149 89.84842,0 163.54811,-0.32463 163.77709,-0.72141 z"
       id="path13"
       transform="scale(0.26458333)" /><path
       style="fill:#002a66;fill-opacity:1;stroke:#ffffff;stroke-width:0.861606;stroke-miterlimit:4.3;paint-order:stroke markers fill"
       d="m 463.44649,427.10546 c -10.94646,-3.01479 -16.20618,-10.06688 -16.93809,-22.71018 -0.66676,-11.51805 2.29841,-18.07385 10.82955,-23.94343 4.21155,-2.89763 4.29819,-2.912 17.52556,-2.90666 15.64906,0.006 19.30392,0.83777 24.56988,5.58948 5.55401,5.01163 6.5189,7.99004 6.51314,20.10468 -0.004,9.06303 -0.27728,10.81238 -2.16424,13.86926 -3.20117,5.18593 -7.63998,8.42976 -13.69229,10.00619 -6.52551,1.69968 -20.45591,1.6948 -26.64351,-0.009 z m 20.78389,-20.33106 c 1.02687,-0.39404 1.5215,-1.8012 1.5215,-4.32848 v -3.74463 h -9.61885 -9.61885 v 4.32849 4.32848 h 8.09735 c 4.45354,0 8.78203,-0.26274 9.61885,-0.58386 z"
       id="path14"
       transform="scale(0.26458333)" /><path
       style="fill:#002a66;fill-opacity:1;stroke:#ffffff;stroke-width:0.861606;stroke-miterlimit:4.3;paint-order:stroke markers fill"
       d="m 382.68253,427.05493 c -5.78937,-1.58574 -10.04781,-4.77382 -12.93179,-9.68139 -2.05293,-3.49341 -2.31071,-5.08675 -2.31071,-14.2829 0,-11.96792 1.10674,-15.22126 6.85058,-20.13777 5.27063,-4.51146 9.36163,-5.4137 24.52228,-5.4082 l 13.35479,0.005 4.80943,3.64088 c 2.64518,2.00248 5.89154,5.5713 7.21413,7.9307 2.096,3.7391 2.40437,5.46294 2.40206,13.42773 -0.002,7.58569 -0.36421,9.81477 -2.13107,13.12257 -3.27658,6.1342 -8.78917,10.31232 -15.41044,11.67992 -7.09723,1.46591 -20.48465,1.31543 -26.36926,-0.29639 z m 24.00962,-24.26563 0.29578,-4.08801 h -10.1551 -10.1551 v 4.36214 4.36213 l 9.85932,-0.27412 9.85932,-0.27412 z"
       id="path15"
       transform="scale(0.26458333)" /><path
       style="fill:#002a66;fill-opacity:1;stroke:#ffffff;stroke-width:0.861606;stroke-miterlimit:4.3;paint-order:stroke markers fill"
       d="m 302.77282,427.03693 c -6.12504,-1.67489 -9.83354,-4.49076 -12.97575,-9.85254 -2.26833,-3.87061 -2.66486,-5.71713 -2.92998,-13.64401 -0.28358,-8.47893 -0.10334,-9.56281 2.39937,-14.42927 2.00733,-3.9032 3.92244,-6.01413 7.41755,-8.17602 4.53275,-2.80372 5.20201,-2.92712 17.63495,-3.2516 14.71501,-0.38403 19.44415,0.54665 24.67116,4.85519 5.79844,4.77956 7.28845,8.84967 7.28845,19.90921 0,11.26238 -0.569,13.10245 -5.80978,18.78802 -3.40615,3.69524 -4.83477,4.47725 -10.55676,5.77869 -7.78294,1.7702 -20.70842,1.78083 -27.13921,0.0223 z m 24.08288,-24.24763 0.29578,-4.08801 h -10.1551 -10.1551 v 4.36214 4.36213 l 9.85933,-0.27412 9.85932,-0.27412 z"
       id="path16"
       transform="scale(0.26458333)" /><path
       style="fill:#002a66;fill-opacity:1;stroke:#ffffff;stroke-width:0.861606;stroke-miterlimit:4.3;paint-order:stroke markers fill"
       d="m 444.93662,655.57617 c -5.56038,-3.66543 -6.79974,-9.16701 -3.19098,-14.16489 1.19034,-1.64853 8.65697,-10.66166 16.59252,-20.02918 7.93555,-9.36752 15.07754,-17.80707 15.8711,-18.75457 0.79355,-0.94749 2.84391,-2.4269 4.55634,-3.28757 2.74394,-1.3791 3.4997,-1.40349 6.36701,-0.20545 4.17805,1.7457 6.39058,4.95087 6.39058,9.25769 0,3.87783 -0.9633,5.46205 -9.09818,14.96263 -3.19607,3.73263 -10.10984,11.84429 -15.36394,18.02591 -5.25409,6.18162 -10.28298,11.47103 -11.17529,11.75424 -0.89231,0.28321 -2.39583,1.36957 -3.34116,2.41414 -2.15604,2.3824 -4.0249,2.38905 -7.608,0.0271 z"
       id="path17"
       transform="scale(0.26458333)" /><path
       style="fill:#002a66;fill-opacity:1;stroke:#ffffff;stroke-width:0.861606;stroke-miterlimit:4.3;paint-order:stroke markers fill"
       d="m 382.90399,559.73151 c -4.07256,-3.42684 -4.21117,-9.5527 -0.31427,-13.88982 2.34462,-2.60948 3.42286,-3.00836 9.48928,-3.51042 14.16095,-1.17196 21.53151,2.17585 21.53151,9.77991 0,7.98977 -3.70713,10.11055 -17.6733,10.11055 -9.43424,0 -10.26164,-0.15809 -13.03322,-2.49022 z"
       id="path18"
       transform="scale(0.26458333)" /><path
       style="fill:#002a66;fill-opacity:1;stroke:#ffffff;stroke-width:0.861606;stroke-miterlimit:4.3;paint-order:stroke markers fill"
       d="m 454.71645,669.95863 c -4.8793,-3.83807 -4.93172,-10.37792 -0.11678,-14.57194 2.55961,-2.22954 41.94639,-11.40475 48.95759,-11.40475 5.50396,0 10.09484,4.50845 10.08568,9.90458 -0.005,3.22107 -3.28511,7.91402 -6.37536,9.1227 -4.29707,1.6807 -41.72573,8.87428 -46.15452,8.87064 -2.49383,-0.002 -4.8604,-0.71286 -6.39661,-1.92123 z"
       id="path19"
       transform="scale(0.26458333)" /><path
       style="fill:#002a66;fill-opacity:1;stroke:#ffffff;stroke-width:0.861606;stroke-miterlimit:4.3;paint-order:stroke markers fill"
       d="m 338.95622,654.60069 c -2.05663,-1.5662 -4.44663,-3.62222 -5.3111,-4.56895 -4.53629,-4.96787 -14.33611,-16.52198 -18.06132,-21.29452 -2.33362,-2.98969 -6.33746,-7.74314 -8.89744,-10.56321 -2.55997,-2.82008 -4.71571,-6.06644 -4.79052,-7.21414 -0.44071,-6.76142 1.09966,-9.51137 6.64136,-11.85651 5.48566,-2.32142 5.57852,-2.23928 31.16067,27.56466 16.26296,18.94681 16.92975,20.65759 10.5414,27.04594 -2.05391,2.0539 -4.59148,3.73437 -5.63905,3.73437 -1.04757,0 -3.58737,-1.28143 -5.644,-2.84764 z"
       id="path20"
       transform="scale(0.26458333)" /><path
       style="fill:#002a66;fill-opacity:1;stroke:#ffffff;stroke-width:0.861606;stroke-miterlimit:4.3;paint-order:stroke markers fill"
       d="m 305.8794,667.42537 c -24.24264,-5.00573 -25.48995,-5.68736 -25.48995,-13.92972 0,-4.20159 0.39014,-5.20643 2.83944,-7.31323 2.56869,-2.20949 3.39416,-2.38972 8.65696,-1.89006 8.36536,0.79421 41.90817,8.28516 44.88396,10.02372 2.93335,1.71376 5.66122,5.94347 5.66122,8.77803 0,1.0903 -1.34339,3.51239 -2.9853,5.38243 -2.72162,3.09975 -3.42254,3.39207 -7.93555,3.30955 -2.72264,-0.0498 -14.25649,-2.01211 -25.63078,-4.36072 z"
       id="path21"
       transform="scale(0.26458333)" /><path
       style="fill:#002a66;fill-opacity:1;stroke:#ffffff;stroke-width:0.861606;stroke-miterlimit:4.3;paint-order:stroke markers fill"
       d="m 232.13172,819.11746 c -2.20606,-0.36425 -6.09352,-1.94979 -8.63881,-3.52343 -8.55089,-5.2866 -11.87823,-13.22062 -11.87823,-28.32357 0,-8.09333 0.28555,-9.72671 2.19755,-12.57039 2.74779,-4.08674 6.85925,-5.54881 15.80045,-5.6188 l 6.93633,-0.0543 0.27781,-31.72152 0.27781,-31.72152 2.52473,-2.52356 c 2.04031,-2.03934 3.88592,-2.68117 9.61885,-3.34503 8.7106,-1.00867 97.24385,-1.04599 108.63936,-0.0458 11.56903,1.01542 15.65961,3.26872 28.30922,15.59417 l 10.58073,10.30957 11.15338,-10.85247 c 8.93383,-8.6928 12.28363,-11.30798 16.83298,-13.14148 l 5.67962,-2.28901 h 58.67497 c 57.46319,0 58.74447,0.0408 62.03943,1.97642 5.68781,3.34129 5.74371,3.70137 5.75928,37.10273 l 0.0142,30.42219 8.66141,0.41411 c 13.54397,0.64754 16.19207,3.75583 16.29331,19.12479 0.0723,10.97142 -1.76051,16.81081 -7.16192,22.81848 -8.29577,9.2269 9.60596,8.35968 -175.54192,8.50378 -89.67172,0.0698 -164.84445,-0.17113 -167.05052,-0.53537 z m 328.61334,-22.13258 c 0.54765,-1.02329 0.99572,-2.97111 0.99572,-4.32848 v -2.46795 H 396.77752 231.81426 v 3.17422 c 0,1.74582 0.51942,3.69364 1.15426,4.32848 0.88867,0.88867 38.61751,1.15426 163.96754,1.15426 159.98426,0 162.83057,-0.0323 163.809,-1.86053 z m -24.01328,-52.5339 v -24.576 l -53.14414,0.14225 -53.14414,0.14224 -13.94734,13.79563 c -7.67103,7.58759 -15.1677,14.25501 -16.65927,14.81648 -1.49156,0.56147 -3.87223,0.74037 -5.29036,0.39757 -1.53278,-0.37051 -8.46928,-6.4174 -17.10446,-14.91079 l -14.52603,-14.28751 h -53.04639 -53.04638 v 24.52807 24.52806 h 139.95425 139.95426 z"
       id="path22"
       transform="scale(0.26458333)" /><path
       style="fill:#002a66;fill-opacity:1;stroke:#ffffff;stroke-width:0.861606;stroke-miterlimit:4.3;paint-order:stroke markers fill"
       d="m 274.95877,759.29509 c -4.46801,-1.2646 -7.48391,-4.47631 -8.16927,-8.69968 -0.72129,-4.44482 3.01237,-8.99858 8.61494,-10.5072 5.80462,-1.56302 22.47952,-0.71559 26.35002,1.33913 4.04923,2.14961 5.95664,7.75704 3.99835,11.75442 -2.62471,5.35769 -5.53871,6.53461 -16.91957,6.83357 -5.70216,0.14978 -11.94567,-0.17433 -13.87447,-0.72024 z"
       id="path25"
       transform="scale(0.26458333)" /><path
       style="fill:#002a66;fill-opacity:1;stroke:#ffffff;stroke-width:0.861606;stroke-miterlimit:4.3;paint-order:stroke markers fill"
       d="m 494.5262,759.04818 c -4.06751,-1.47151 -7.81244,-5.72787 -7.81244,-8.87936 0,-3.58147 2.39484,-7.53332 5.4587,-9.0077 1.49453,-0.71919 6.95605,-1.50382 12.13672,-1.74362 15.39219,-0.71246 21.84186,2.35022 21.84186,10.37178 0,4.88112 -2.7986,8.16446 -8.09607,9.49838 -5.57954,1.40494 -19.37131,1.26457 -23.52877,-0.23948 z"
       id="path26"
       transform="scale(0.26458333)" /></g></svg>
