<?xml version="1.0" encoding="UTF-8" standalone="no"?>
<!-- Created with Inkscape (http://www.inkscape.org/) -->

<svg
   width="4.7150302mm"
   height="4.2281499mm"
   viewBox="0 0 4.7150302 4.2281499"
   version="1.1"
   id="svg1"
   xml:space="preserve"
   xmlns="http://www.w3.org/2000/svg"
   xmlns:svg="http://www.w3.org/2000/svg"><defs
     id="defs1" /><g
     id="layer1"
     transform="translate(-102.68373,-146.31665)"><path
       style="fill:#002a66;fill-opacity:1;stroke:#ffffff;stroke-width:0.038078;stroke-miterlimit:4.3;paint-order:stroke markers fill"
       d="m 392.59842,568.89061 c -0.0935,-0.0433 -0.22142,-0.13375 -0.28421,-0.20099 -0.0962,-0.10298 -1.98205,-3.40569 -2.0586,-3.60517 -0.0226,-0.0589 0.0558,-0.0667 0.67017,-0.0667 h 0.69575 l 0.49895,0.99898 0.49896,0.99898 h 1.16913 1.16913 v -0.51012 -0.51011 h -0.86124 -0.86124 l -0.49895,-0.99898 -0.49895,-0.99898 h -1.2934 -1.29341 l -0.70902,-1.23976 c -0.75438,-1.31908 -0.82864,-1.4765 -0.82646,-1.75189 0.002,-0.28708 0.12135,-0.54154 0.83796,-1.79069 l 0.68283,-1.19027 1.30106,-0.0112 1.30105,-0.0112 0.49865,-0.99836 0.49864,-0.99836 h 0.86124 0.86124 v -0.51012 -0.51012 h -1.16913 -1.16913 l -0.49896,0.99898 -0.49895,0.99898 h -0.69575 c -0.6144,0 -0.69276,-0.008 -0.67017,-0.0667 0.0765,-0.19948 1.96244,-3.50219 2.0586,-3.60516 0.25431,-0.27234 0.3044,-0.27972 1.89957,-0.27972 1.59429,0 1.63542,0.006 1.9084,0.27899 0.28344,0.28344 0.27889,0.2419 0.27992,2.55667 l 9.3e-4,2.0936 h -0.73265 -0.73265 l -0.50013,0.49883 c -0.27507,0.27435 -0.50013,0.51347 -0.50013,0.53137 0,0.0179 0.55475,0.0325 1.23278,0.0325 h 1.23278 v 1.48784 1.48784 l -1.07337,-6e-5 -1.07337,-5e-5 -0.51011,-1.00955 -0.51012,-1.00956 -1.14776,-0.0113 -1.14776,-0.0113 -0.53074,0.53202 -0.53073,0.53203 h 1.37042 1.37042 l 0.49895,0.99898 0.49895,0.99898 h 1.39261 1.39261 l -2.3e-4,2.56121 c -1.6e-4,1.67447 -0.0159,2.61744 -0.0453,2.72363 -0.0576,0.2075 -0.30964,0.48762 -0.52831,0.58721 -0.15383,0.0701 -0.30774,0.0774 -1.61537,0.0774 -1.31726,0 -1.46039,-0.007 -1.61536,-0.0787 z"
       id="path2"
       transform="scale(0.26458333)" /><path
       style="fill:#002a66;fill-opacity:1;stroke:#ffffff;stroke-width:0.038078;stroke-miterlimit:4.3;paint-order:stroke markers fill"
       d="m 398.42725,568.92622 c -0.50012,-0.12439 -1.03615,-0.58043 -1.29362,-1.10058 -0.15448,-0.3121 -0.15671,-0.32395 -0.15671,-0.82983 0,-0.49378 0.005,-0.52392 0.13904,-0.79565 0.15145,-0.30764 0.42792,-0.64116 0.66578,-0.80316 l 0.15106,-0.10289 -0.003,-4.29348 -0.003,-4.29348 -0.22001,-0.17244 c -0.27552,-0.21593 -0.51141,-0.52344 -0.63404,-0.82654 -0.0786,-0.19431 -0.0947,-0.31677 -0.0953,-0.72493 -7.3e-4,-0.48256 0.002,-0.49676 0.15874,-0.81377 0.20783,-0.42043 0.53452,-0.74901 0.94773,-0.95323 0.58198,-0.28763 1.33487,-0.24407 1.88032,0.10878 1.18517,0.76669 1.2643,2.37998 0.15859,3.23303 l -0.23421,0.18069 v 1.24887 c 0,0.87069 0.014,1.24886 0.0462,1.24886 0.0254,0 0.48273,-0.26189 1.01627,-0.58198 l 0.97007,-0.58199 0.0471,-0.31654 c 0.16276,-1.0943 1.18588,-1.87721 2.23893,-1.71326 1.30154,0.20263 2.06148,1.6147 1.50684,2.79993 -0.17127,0.366 -0.56549,0.75747 -0.95557,0.94889 -0.26528,0.13019 -0.33889,0.14644 -0.72837,0.16086 -0.42396,0.0157 -0.59852,-0.0135 -0.97448,-0.16328 -0.12279,-0.0489 -0.16985,-0.0252 -1.26818,0.6391 -0.92563,0.55983 -1.12998,0.69981 -1.084,0.74257 0.0312,0.029 0.60273,0.48379 1.27016,1.01067 l 1.2135,0.95796 0.23046,-0.0598 c 0.67231,-0.17439 1.39327,0.0255 1.89255,0.52481 0.41325,0.41325 0.58048,0.82649 0.57879,1.43029 -0.002,0.78175 -0.40857,1.40256 -1.15414,1.76309 -0.31095,0.15037 -0.3309,0.15413 -0.80769,0.15226 -0.58581,-0.002 -0.82513,-0.0797 -1.20983,-0.39105 -0.48626,-0.39361 -0.75516,-0.94089 -0.75905,-1.54489 l -0.002,-0.33829 -1.00689,-0.80675 c -0.55379,-0.44371 -1.01895,-0.80674 -1.03368,-0.80674 -0.0147,0 -0.0268,0.50537 -0.0268,1.12304 v 1.12304 l 0.14693,0.0908 c 0.22716,0.14039 0.51951,0.49163 0.66775,0.80224 0.11454,0.23998 0.13739,0.34297 0.15438,0.6958 0.0167,0.34644 0.005,0.46119 -0.0729,0.70203 -0.17626,0.54628 -0.6435,1.05495 -1.14937,1.25127 -0.26722,0.10371 -0.92891,0.14513 -1.20832,0.0756 z"
       id="path3"
       transform="scale(0.26458333)" /></g></svg>
