<?xml version="1.0" encoding="UTF-8" standalone="no"?>
<!-- Created with Inkscape (http://www.inkscape.org/) -->

<svg
   width="118.5653mm"
   height="118.53122mm"
   viewBox="0 0 118.5653 118.53122"
   version="1.1"
   id="svg1"
   xml:space="preserve"
   xmlns="http://www.w3.org/2000/svg"
   xmlns:svg="http://www.w3.org/2000/svg"><defs
     id="defs1" /><g
     id="layer1"
     transform="translate(-45.756931,-89.165638)"><g
       id="g2"
       transform="translate(-0.05169747,0.04806073)"
       style="display:inline"><path
         style="fill:#002a66;fill-opacity:1;stroke:#ffffff;stroke-width:0.609248;stroke-miterlimit:4.3;paint-order:stroke markers fill"
         d="m 197.24505,783.5778 c -11.33405,-3.18372 -19.79863,-11.80759 -22.76399,-23.19239 -0.92348,-3.54547 -1.04145,-26.15498 -1.04145,-199.59733 0,-173.81954 0.11648,-196.04613 1.04608,-199.61512 3.26987,-12.55387 14.23888,-21.92308 27.52045,-23.50668 3.81395,-0.45475 71.51448,-0.62465 198.94543,-0.49928 l 193.16412,0.19005 4.15179,1.42816 c 5.1497,1.77143 11.07056,5.64398 14.30458,9.35597 3.7454,4.29893 6.9386,11.52889 7.70682,17.44957 0.88971,6.857 0.89961,384.14246 0.0103,390.99308 -1.64974,12.70786 -11.27463,23.75453 -23.4633,26.92928 -3.57181,0.93033 -25.73094,1.03935 -200.26814,0.98525 -155.94822,-0.0483 -196.88052,-0.23738 -199.31265,-0.92056 z M 308.79052,614.18027 V 507.05581 h -33.66769 -33.66768 v 107.12446 107.12447 h 33.66768 33.66769 z m 108.1447,49.12338 c 0,-35.65158 0.27022,-60.22192 0.70127,-63.76456 1.59824,-13.13526 5.0688,-22.02021 11.08696,-28.38352 6.45934,-6.8298 13.20632,-9.62033 24.60008,-10.17454 8.7443,-0.42533 13.51515,0.38228 19.28215,3.26409 9.67553,4.83492 15.22386,15.08798 17.08425,31.57096 0.41556,3.68181 0.69313,29.90739 0.69649,65.80503 l 0.006,59.68363 h 33.71067 33.71067 l -0.27868,-69.88596 c -0.23804,-59.69797 -0.44052,-71.09225 -1.38894,-78.16064 -2.17495,-16.20963 -5.22089,-27.00946 -10.50092,-37.23257 -10.32999,-20.00077 -27.7135,-30.84052 -54.03572,-33.69482 -27.53294,-2.98557 -50.33568,3.76515 -66.38085,19.65198 -2.60712,2.58139 -6.07522,6.72458 -7.70688,9.2071 l -2.96667,4.51367 -0.18357,-14.32385 -0.18356,-14.32384 h -32.29386 -32.29385 v 107.12446 107.12447 h 33.66769 33.66769 z M 287.3092,476.41679 c 2.58386,-0.79808 6.77042,-2.92193 9.77048,-4.95659 20.18848,-13.692 22.73813,-42.09009 5.3247,-59.30674 -7.95252,-7.86264 -16.13731,-11.20888 -27.37972,-11.19381 -11.01197,0.0147 -19.32782,3.43226 -27.11477,11.14314 -7.74962,7.67392 -11.193,16.06279 -11.20776,27.3047 -0.0142,10.78289 3.28565,19.25092 10.38106,26.64005 6.32294,6.58469 12.90253,10.18239 21.57817,11.79888 4.53706,0.84537 13.50924,0.15752 18.64784,-1.42963 z"
         id="path3"
         transform="scale(0.26458333)" /><path
         style="fill:#d9d9d9;fill-opacity:1;stroke:#ffffff;stroke-width:0.609248;stroke-miterlimit:4.3;paint-order:stroke markers fill"
         d="m 267.51677,476.78686 c -8.7682,-1.90599 -17.12888,-7.1785 -22.30783,-14.06803 -3.94125,-5.24302 -4.59959,-6.51441 -6.39892,-12.3576 -1.01968,-3.31136 -1.43581,-6.4788 -1.43581,-10.92908 0,-10.79545 3.38639,-18.89234 11.14724,-26.65319 7.65698,-7.65698 15.986,-11.14723 26.60138,-11.14723 28.98863,0 47.04073,30.29413 33.43732,56.11281 -3.11258,5.90753 -9.97514,12.52034 -16.14356,15.55602 -8.49211,4.17924 -16.53289,5.30506 -24.89982,3.4863 z"
         id="path4"
         transform="scale(0.26458333)" /><path
         style="fill:#d9d9d9;fill-opacity:1;stroke:#ffffff;stroke-width:0.609248;stroke-miterlimit:4.3;paint-order:stroke markers fill"
         d="M 242.1353,614.18027 V 507.73596 h 32.98753 32.98754 V 614.18027 720.62458 H 275.12283 242.1353 Z"
         id="path5"
         transform="scale(0.26458333)" /><path
         style="fill:#d9d9d9;fill-opacity:1;stroke:#ffffff;stroke-width:0.609248;stroke-miterlimit:4.3;paint-order:stroke markers fill"
         d="M 350.28,614.18027 V 507.73596 h 31.62722 31.62723 v 14.62334 c 0,8.42973 0.26458,14.62334 0.62468,14.62334 0.34357,0 1.31359,-1.14776 2.15559,-2.55058 7.44406,-12.40227 21.48311,-23.20631 36.86414,-28.36955 16.19494,-5.43646 41.58049,-4.74907 58.8954,1.59478 27.86806,10.21031 41.25013,33.46495 44.27359,76.93622 0.38445,5.52766 0.68888,37.58871 0.69265,72.94666 l 0.007,63.08441 H 524.08942 491.13134 L 490.8952,657.2001 c -0.22908,-61.52941 -0.27877,-63.61046 -1.66296,-69.6486 -2.64012,-11.51675 -8.33718,-20.21319 -15.70366,-23.97128 -6.64939,-3.39227 -18.8926,-4.44699 -28.35477,-2.44268 -13.33233,2.82409 -22.39353,12.14018 -26.12196,26.85675 -2.58782,10.21446 -2.79262,15.70975 -2.79459,74.98713 l -0.002,57.64316 H 383.26753 350.28 Z"
         id="path6"
         transform="scale(0.26458333)" /></g><path
       id="path1"
       style="fill:#001129;fill-opacity:1;stroke:#ffffff;stroke-width:0.227967;stroke-miterlimit:4.3;paint-order:stroke markers fill"
       d="m 72.056066,106.11394 c -1.354627,0.0249 -2.757633,0.18126 -3.956341,0.86202 -1.205238,0.67536 -2.187795,1.66916 -3.147587,2.64702 -0.964898,1.00577 -1.809533,2.18209 -2.161862,3.54937 -0.404453,1.5473 -0.320728,3.16621 -0.219631,4.74623 0.06352,0.96499 0.288385,1.92161 0.716476,2.79169 1.124537,2.37724 3.200259,4.24431 5.59767,5.28711 1.129607,0.49686 2.354181,0.78189 3.590536,0.78573 1.546008,0.01 3.101454,-0.29714 4.512905,-0.93203 1.436164,-0.69858 2.680756,-1.7467 3.745156,-2.92777 0.903859,-1.00712 1.645624,-2.18377 2.031069,-3.48771 0.269928,-1.06712 0.204086,-2.17889 0.21931,-3.26956 -0.0066,-1.16572 0.01404,-2.37558 -0.45626,-3.46766 -0.772576,-1.97411 -2.176584,-3.66656 -3.879078,-4.91323 -0.891352,-0.64335 -1.890686,-1.14356 -2.945558,-1.45417 -1.099495,-0.27418 -2.24377,-0.20998 -3.366908,-0.21995 -0.0933,9.7e-4 -0.186597,0.002 -0.279897,0.003 z" /><path
       id="path2"
       style="fill:#001129;fill-opacity:1;stroke:#ffffff;stroke-width:0.227967;stroke-miterlimit:4.3;paint-order:stroke markers fill"
       d="m 63.477261,134.50238 c 0,18.83968 0,37.67935 0,56.51903 6.121418,0 12.242837,0 18.364255,0 0,-19.01606 0,-38.03213 0,-57.04819 -6.121418,0 -12.242837,0 -18.364255,0 0,0.17639 0,0.35277 0,0.52916 z" /><path
       id="path7"
       style="fill:#001129;fill-opacity:1;stroke:#ffffff;stroke-width:0.227967;stroke-miterlimit:4.3;paint-order:stroke markers fill"
       d="m 126.01349,132.71128 c -2.11592,0.0306 -4.26285,0.20148 -6.27196,0.91157 -1.57988,0.55688 -3.08474,1.31891 -4.50403,2.20599 -1.86107,1.16994 -3.51488,2.67882 -4.79344,4.47085 -0.17431,0.23069 -0.36359,0.48801 -0.54224,0.69067 -0.022,-0.41027 -0.0374,-0.80843 -0.0475,-1.19786 -0.0356,-1.93951 -0.0106,-3.87955 -0.0181,-5.81928 -5.86683,0 -11.733652,0 -17.600478,0 0,19.01606 0,38.03213 0,57.04819 6.121418,0 12.242838,0 18.364248,0 0.007,-6.87661 -0.006,-13.75326 0.0173,-20.62983 0.0187,-3.6074 0.0452,-7.21505 0.13511,-10.82148 0.0321,-0.74396 0.019,-1.53475 0.16258,-2.28439 0.24159,-1.42361 0.62416,-2.83797 1.29005,-4.12555 0.0469,-0.0919 0.1491,-0.27764 0.22117,-0.40308 0.78162,-1.36757 1.98974,-2.49603 3.44156,-3.11987 1.22777,-0.54256 2.5724,-0.76814 3.90683,-0.82356 0.22954,-0.009 0.53353,-0.0157 0.79261,-0.013 0.96447,0.0278 1.93763,0.0382 2.8883,0.2197 0.76873,0.1736 1.48484,0.53469 2.14664,0.95498 1.47021,0.98943 2.41295,2.5797 3.00479,4.21707 0.26581,0.69432 0.44353,1.42191 0.48808,2.1655 0.14857,2.05368 0.14227,4.11457 0.17282,6.17238 0.0691,8.49511 0.0941,16.9905 0.14138,25.48575 0.005,1.00179 0.01,2.00358 0.0149,3.00537 6.11091,0 12.22182,0 18.33273,0 -0.006,-7.53793 0.007,-15.0759 -0.0166,-22.61381 -0.0273,-4.40479 -0.0432,-8.81167 -0.24401,-13.21265 -0.12085,-2.46699 -0.30549,-4.94653 -0.8961,-7.35241 -0.72019,-3.07518 -1.86697,-6.10977 -3.79722,-8.63881 -1.51946,-2.00377 -3.55132,-3.60823 -5.84627,-4.63426 -2.91975,-1.32074 -6.14934,-1.78763 -9.3311,-1.85517 -0.53726,-0.0134 -1.0747,-0.008 -1.61204,-0.003 z" /></g></svg>
