<?xml version="1.0" encoding="UTF-8" standalone="no"?>
<!-- Created with Inkscape (http://www.inkscape.org/) -->

<svg
   width="5.5308313mm"
   height="5.5495968mm"
   viewBox="0 0 5.5308313 5.5495968"
   version="1.1"
   id="svg1"
   xml:space="preserve"
   xmlns="http://www.w3.org/2000/svg"
   xmlns:svg="http://www.w3.org/2000/svg"><defs
     id="defs1" /><g
     id="layer1"
     transform="translate(-102.26838,-145.65362)"><path
       style="fill:#002a66;fill-opacity:1;stroke:#ffffff;stroke-width:0.0538504;stroke-miterlimit:4.3;paint-order:stroke markers fill"
       d="m 390.37597,560.37311 c -0.0139,-0.0413 -0.0837,-0.37273 -0.15505,-0.73645 l -0.12975,-0.66129 -0.33904,-0.16147 c -0.18647,-0.0888 -0.4406,-0.22269 -0.56473,-0.29752 l -0.22569,-0.13605 -0.61723,0.18892 c -0.33948,0.10391 -0.65801,0.20457 -0.70785,0.22369 -0.0663,0.0255 -0.20164,-0.15476 -0.50516,-0.67293 -0.228,-0.38924 -0.45077,-0.76437 -0.49505,-0.83362 -0.0752,-0.11765 -0.0439,-0.15764 0.47638,-0.60872 l 0.55688,-0.48281 -0.003,-0.69642 -0.003,-0.69643 -0.35779,-0.31154 c -0.19678,-0.17134 -0.44493,-0.38734 -0.55143,-0.47999 l -0.19364,-0.16846 0.48199,-0.81495 c 0.2651,-0.44823 0.51456,-0.81446 0.55435,-0.81385 0.0398,6.1e-4 0.36628,0.0949 0.72551,0.2096 0.6467,0.20644 0.65472,0.20739 0.81159,0.0967 0.0871,-0.0615 0.33428,-0.19961 0.5492,-0.30691 0.21492,-0.1073 0.39714,-0.2005 0.40492,-0.20712 0.008,-0.007 0.0684,-0.28071 0.13478,-0.60909 0.0663,-0.32837 0.13489,-0.65791 0.15232,-0.73231 0.0313,-0.13345 0.0449,-0.13526 1.01146,-0.13526 h 0.97976 l 0.14144,0.74692 0.14144,0.74693 0.24361,0.10975 c 0.13399,0.0604 0.38692,0.196 0.56207,0.30142 l 0.31845,0.19167 0.71931,-0.21771 c 0.39561,-0.11974 0.7284,-0.20599 0.73953,-0.19167 0.0458,0.0589 0.94361,1.6086 0.94326,1.62808 -2.1e-4,0.0116 -0.25045,0.23583 -0.55609,0.49822 l -0.55571,0.47707 0.007,0.68502 0.007,0.68503 0.54906,0.48023 c 0.50328,0.44017 0.54334,0.49116 0.48038,0.61137 -0.0378,0.0721 -0.25474,0.44676 -0.48213,0.83249 l -0.41344,0.70134 -0.46464,-0.14663 c -0.89551,-0.2826 -1.00118,-0.29678 -1.19447,-0.16028 -0.0946,0.0668 -0.33765,0.2047 -0.5402,0.30648 l -0.36827,0.18507 -0.13956,0.72432 -0.13955,0.72431 h -0.98198 c -0.73201,0 -0.98842,-0.0191 -1.00727,-0.0751 z m 1.73398,-2.99287 c 0.45982,-0.17204 0.83613,-0.52505 1.07333,-1.00687 0.17437,-0.3542 0.19739,-0.45803 0.19589,-0.88357 -0.002,-0.58183 -0.17053,-1.00012 -0.56592,-1.40493 -0.399,-0.40851 -0.82703,-0.58022 -1.44633,-0.58022 -0.43772,0 -0.56005,0.0241 -0.85308,0.16798 -0.44374,0.21791 -0.90617,0.71973 -1.04308,1.13193 -0.11708,0.3525 -0.13291,0.92962 -0.0353,1.28871 0.14798,0.54462 0.6393,1.06591 1.22596,1.30074 0.36478,0.14601 1.03863,0.13961 1.44857,-0.0138 z"
       id="path2"
       transform="scale(0.26458333)" /><path
       style="fill:#002a66;fill-opacity:1;stroke:#ffffff;stroke-width:0.0538504;stroke-miterlimit:4.3;paint-order:stroke markers fill"
       d="m 399.33177,571.37466 c -0.0149,-0.0413 -0.10951,-0.46741 -0.21029,-0.94685 -0.10078,-0.47944 -0.1962,-0.91229 -0.21204,-0.96189 -0.0158,-0.0496 -0.17666,-0.15407 -0.35738,-0.23217 -0.18072,-0.0781 -0.52382,-0.27056 -0.76245,-0.42767 l -0.43386,-0.28567 -0.96267,0.32222 c -0.52947,0.17723 -0.98504,0.29986 -1.01238,0.27252 -0.13538,-0.13539 -1.36531,-2.32069 -1.32502,-2.35428 0.0256,-0.0214 0.378,-0.32971 0.78305,-0.68519 l 0.73644,-0.64633 -0.003,-0.94251 -0.003,-0.94252 -0.78228,-0.68157 c -0.74473,-0.64885 -0.77827,-0.6878 -0.69864,-0.81159 0.046,-0.0715 0.34988,-0.58992 0.67526,-1.15202 0.32539,-0.5621 0.59811,-1.03097 0.60605,-1.04192 0.008,-0.0109 0.46033,0.12137 1.0053,0.29404 l 0.99086,0.31396 0.53225,-0.33321 c 0.29274,-0.18326 0.63359,-0.36831 0.75745,-0.41123 0.26064,-0.0903 0.22957,-0.0146 0.46616,-1.13618 0.10113,-0.47944 0.19844,-0.91905 0.21623,-0.97691 0.0296,-0.0962 0.14975,-0.10521 1.3974,-0.10521 h 1.36505 l 0.198,0.94686 c 0.10891,0.52077 0.21175,0.99485 0.22853,1.0535 0.0168,0.0587 0.20129,0.18408 0.41,0.27872 0.20871,0.0946 0.54336,0.28335 0.74366,0.41938 0.20031,0.13602 0.39485,0.24731 0.43232,0.24731 0.0375,0 0.48755,-0.13754 1.00019,-0.30565 0.51264,-0.16812 0.94204,-0.29569 0.95422,-0.28351 0.074,0.074 1.34855,2.30796 1.33598,2.34169 -0.008,0.0227 -0.35431,0.33775 -0.76855,0.70007 l -0.75317,0.65875 0.002,0.94298 0.002,0.94297 0.69059,0.60095 c 0.37983,0.33052 0.72793,0.63766 0.77356,0.68252 0.0703,0.0691 -0.0199,0.25872 -0.59163,1.24392 -0.37103,0.63928 -0.68013,1.16809 -0.6869,1.17512 -0.007,0.007 -0.46157,-0.13099 -1.01067,-0.30669 l -0.99837,-0.31947 -0.17117,0.13067 c -0.27389,0.20909 -0.8735,0.55162 -1.11389,0.63632 -0.24594,0.0866 -0.21104,-0.0124 -0.53385,1.51466 l -0.13662,0.64626 h -1.37456 c -1.04515,0 -1.38105,-0.018 -1.40161,-0.0752 z m 2.02204,-3.91898 c 0.58173,-0.1233 1.10729,-0.41237 1.52567,-0.83914 1.20276,-1.22688 1.15563,-3.16609 -0.10543,-4.33797 -1.46923,-1.36534 -3.8774,-0.91676 -4.7582,0.88633 -1.10873,2.26966 0.87046,4.81381 3.33796,4.29078 z"
       id="path3"
       transform="scale(0.26458333)" /></g></svg>
