<?xml version="1.0" encoding="UTF-8" standalone="no"?>
<!-- Created with Inkscape (http://www.inkscape.org/) -->

<svg
   width="5.2981424mm"
   height="5.2962046mm"
   viewBox="0 0 5.2981424 5.2962046"
   version="1.1"
   id="svg1"
   xml:space="preserve"
   xmlns="http://www.w3.org/2000/svg"
   xmlns:svg="http://www.w3.org/2000/svg"><defs
     id="defs1" /><g
     id="layer1"
     transform="translate(-102.39376,-145.78088)"><g
       style="fill:#e3e3e3"
       id="g1"
       transform="matrix(0.00661458,0,0,0.00661458,101.86458,151.60625)"><path
         d="m 80,-80 v -481 l 280,-119 v 80 l 200,-80 v 120 h 320 v 480 z m 80,-80 H 800 V -480 H 480 v -82 l -200,80 v -78 l -120,53 z m 280,-80 h 80 v -160 h -80 z m -160,0 h 80 v -160 h -80 z m 320,0 h 80 V -400 H 600 Z M 880,-560 H 680 l 40,-320 h 120 z m -720,400 h 640 z"
         id="path1" /></g><path
       style="fill:#002a66;fill-opacity:1;stroke:#ffffff;stroke-width:0.0538504;stroke-miterlimit:4.3;paint-order:stroke markers fill"
       d="m 387.05318,564.9733 0.0153,-5.99557 3.42671,-1.4586 c 1.8847,-0.80222 3.43348,-1.45879 3.44175,-1.45903 0.008,-2.5e-4 0.015,0.4324 0.015,0.96144 0,0.738 0.0178,0.96188 0.0764,0.96188 0.042,0 1.1574,-0.43284 2.47858,-0.96188 1.32119,-0.52904 2.42303,-0.96189 2.44853,-0.96189 0.0255,0 0.0464,0.6628 0.0464,1.47289 v 1.47289 h 1.5018 1.5018 l 0.0295,-0.13527 c 0.0162,-0.0744 0.2342,-1.79902 0.48435,-3.83251 0.25015,-2.03348 0.46948,-3.77164 0.48739,-3.86257 l 0.0326,-0.16532 h 1.46283 1.46282 l 0.0356,0.22544 c 0.0196,0.12399 0.25188,1.96216 0.51628,4.08481 l 0.48073,3.85936 v 5.89475 5.89475 h -9.97984 -9.97985 z m 17.96048,0.0439 v -4.0279 h -3.99783 -3.99783 v -1.022 c 0,-0.5621 -0.0209,-1.022 -0.0464,-1.022 -0.0255,0 -1.12734,0.43285 -2.44852,0.96188 -1.32119,0.52904 -2.42303,0.96189 -2.44853,0.96189 -0.0255,0 -0.0464,-0.41932 -0.0464,-0.93183 0,-0.70784 -0.0181,-0.93071 -0.0751,-0.92721 -0.0413,0.003 -0.72442,0.29389 -1.51797,0.64744 l -1.44283,0.64282 -0.0154,4.3724 -0.0154,4.3724 h 8.02612 8.02612 z"
       id="path2"
       transform="scale(0.26458333)" /><path
       style="fill:#002a66;fill-opacity:1;stroke:#ffffff;stroke-width:0.0538504;stroke-miterlimit:4.3;paint-order:stroke markers fill"
       d="m 400.02389,565.01721 v -1.98389 h 0.96188 0.96189 v 1.98389 1.98388 h -0.96189 -0.96188 z"
       id="path3"
       transform="scale(0.26458333)" /><path
       style="fill:#002a66;fill-opacity:1;stroke:#ffffff;stroke-width:0.0538504;stroke-miterlimit:4.3;paint-order:stroke markers fill"
       d="m 396.05611,565.01721 v -1.98389 h 0.96189 0.96188 v 1.98389 1.98388 h -0.96188 -0.96189 z"
       id="path4"
       transform="scale(0.26458333)" /><path
       style="fill:#002a66;fill-opacity:1;stroke:#ffffff;stroke-width:0.0538504;stroke-miterlimit:4.3;paint-order:stroke markers fill"
       d="m 392.02822,565.01721 v -1.98389 h 0.96188 0.96189 v 1.98389 1.98388 h -0.96189 -0.96188 z"
       id="path5"
       transform="scale(0.26458333)" /></g></svg>
