<?xml version="1.0" encoding="UTF-8" standalone="no"?>
<!-- Created with Inkscape (http://www.inkscape.org/) -->

<svg
   width="118.5653mm"
   height="118.53121mm"
   viewBox="0 0 118.5653 118.53121"
   version="1.1"
   id="svg1"
   xml:space="preserve"
   xmlns="http://www.w3.org/2000/svg"
   xmlns:svg="http://www.w3.org/2000/svg"><defs
     id="defs1" /><g
     id="g2"
     transform="translate(-45.808628,-89.117584)"><path
       style="fill:#002a66;fill-opacity:1;stroke:#ffffff;stroke-width:0.609248;stroke-miterlimit:4.3;paint-order:stroke markers fill"
       d="m 197.24505,783.5778 c -11.33405,-3.18372 -19.79863,-11.80759 -22.76399,-23.19239 -0.92348,-3.54547 -1.04145,-26.15498 -1.04145,-199.59733 0,-173.81954 0.11648,-196.04613 1.04608,-199.61512 3.26987,-12.55387 14.23888,-21.92308 27.52045,-23.50668 3.81395,-0.45475 71.51448,-0.62465 198.94543,-0.49928 l 193.16412,0.19005 4.15179,1.42816 c 5.1497,1.77143 11.07056,5.64398 14.30458,9.35597 3.7454,4.29893 6.9386,11.52889 7.70682,17.44957 0.88971,6.857 0.89961,384.14246 0.0103,390.99308 -1.64974,12.70786 -11.27463,23.75453 -23.4633,26.92928 -3.57181,0.93033 -25.73094,1.03935 -200.26814,0.98525 -155.94822,-0.0483 -196.88052,-0.23738 -199.31265,-0.92056 z M 308.79052,614.18027 V 507.05581 h -33.66769 -33.66768 v 107.12446 107.12447 h 33.66768 33.66769 z m 108.1447,49.12338 c 0,-35.65158 0.27022,-60.22192 0.70127,-63.76456 1.59824,-13.13526 5.0688,-22.02021 11.08696,-28.38352 6.45934,-6.8298 13.20632,-9.62033 24.60008,-10.17454 8.7443,-0.42533 13.51515,0.38228 19.28215,3.26409 9.67553,4.83492 15.22386,15.08798 17.08425,31.57096 0.41556,3.68181 0.69313,29.90739 0.69649,65.80503 l 0.006,59.68363 h 33.71067 33.71067 l -0.27868,-69.88596 c -0.23804,-59.69797 -0.44052,-71.09225 -1.38894,-78.16064 -2.17495,-16.20963 -5.22089,-27.00946 -10.50092,-37.23257 -10.32999,-20.00077 -27.7135,-30.84052 -54.03572,-33.69482 -27.53294,-2.98557 -50.33568,3.76515 -66.38085,19.65198 -2.60712,2.58139 -6.07522,6.72458 -7.70688,9.2071 l -2.96667,4.51367 -0.18357,-14.32385 -0.18356,-14.32384 h -32.29386 -32.29385 v 107.12446 107.12447 h 33.66769 33.66769 z M 287.3092,476.41679 c 2.58386,-0.79808 6.77042,-2.92193 9.77048,-4.95659 20.18848,-13.692 22.73813,-42.09009 5.3247,-59.30674 -7.95252,-7.86264 -16.13731,-11.20888 -27.37972,-11.19381 -11.01197,0.0147 -19.32782,3.43226 -27.11477,11.14314 -7.74962,7.67392 -11.193,16.06279 -11.20776,27.3047 -0.0142,10.78289 3.28565,19.25092 10.38106,26.64005 6.32294,6.58469 12.90253,10.18239 21.57817,11.79888 4.53706,0.84537 13.50924,0.15752 18.64784,-1.42963 z"
       id="path3"
       transform="scale(0.26458333)" /><path
       style="fill:#d9d9d9;fill-opacity:1;stroke:#ffffff;stroke-width:0.609248;stroke-miterlimit:4.3;paint-order:stroke markers fill"
       d="m 267.51677,476.78686 c -8.7682,-1.90599 -17.12888,-7.1785 -22.30783,-14.06803 -3.94125,-5.24302 -4.59959,-6.51441 -6.39892,-12.3576 -1.01968,-3.31136 -1.43581,-6.4788 -1.43581,-10.92908 0,-10.79545 3.38639,-18.89234 11.14724,-26.65319 7.65698,-7.65698 15.986,-11.14723 26.60138,-11.14723 28.98863,0 47.04073,30.29413 33.43732,56.11281 -3.11258,5.90753 -9.97514,12.52034 -16.14356,15.55602 -8.49211,4.17924 -16.53289,5.30506 -24.89982,3.4863 z"
       id="path4"
       transform="scale(0.26458333)" /><path
       style="fill:#d9d9d9;fill-opacity:1;stroke:#ffffff;stroke-width:0.609248;stroke-miterlimit:4.3;paint-order:stroke markers fill"
       d="M 242.1353,614.18027 V 507.73596 h 32.98753 32.98754 V 614.18027 720.62458 H 275.12283 242.1353 Z"
       id="path5"
       transform="scale(0.26458333)" /><path
       style="fill:#d9d9d9;fill-opacity:1;stroke:#ffffff;stroke-width:0.609248;stroke-miterlimit:4.3;paint-order:stroke markers fill"
       d="M 350.28,614.18027 V 507.73596 h 31.62722 31.62723 v 14.62334 c 0,8.42973 0.26458,14.62334 0.62468,14.62334 0.34357,0 1.31359,-1.14776 2.15559,-2.55058 7.44406,-12.40227 21.48311,-23.20631 36.86414,-28.36955 16.19494,-5.43646 41.58049,-4.74907 58.8954,1.59478 27.86806,10.21031 41.25013,33.46495 44.27359,76.93622 0.38445,5.52766 0.68888,37.58871 0.69265,72.94666 l 0.007,63.08441 H 524.08942 491.13134 L 490.8952,657.2001 c -0.22908,-61.52941 -0.27877,-63.61046 -1.66296,-69.6486 -2.64012,-11.51675 -8.33718,-20.21319 -15.70366,-23.97128 -6.64939,-3.39227 -18.8926,-4.44699 -28.35477,-2.44268 -13.33233,2.82409 -22.39353,12.14018 -26.12196,26.85675 -2.58782,10.21446 -2.79262,15.70975 -2.79459,74.98713 l -0.002,57.64316 H 383.26753 350.28 Z"
       id="path6"
       transform="scale(0.26458333)" /></g></svg>
