<?xml version="1.0" encoding="UTF-8" standalone="no"?>
<!-- Created with Inkscape (http://www.inkscape.org/) -->

<svg
   width="5.7943654mm"
   height="4.7644057mm"
   viewBox="0 0 5.7943654 4.7644057"
   version="1.1"
   id="svg1"
   xml:space="preserve"
   xmlns="http://www.w3.org/2000/svg"
   xmlns:svg="http://www.w3.org/2000/svg"><defs
     id="defs1" /><g
     id="layer1"
     transform="translate(-101.34865,-84.930295)"><g
       id="layer1-4"
       transform="translate(29.633333,-33.867625)"><g
         style="fill:#e3e3e3"
         id="g1"
         transform="matrix(0.00661458,0,0,0.00661458,71.437502,124.35417)"><path
           d="m 42,-120 v -112 q 0,-33 17,-62 17,-29 47,-44 51,-26 115,-44 64,-18 141,-18 77,0 141,18 64,18 115,44 30,15 47,44 17,29 17,62 v 112 z m 80,-80 h 480 v -32 q 0,-11 -5.5,-20 -5.5,-9 -14.5,-14 -36,-18 -92.5,-36 -56.5,-18 -127.5,-18 -71,0 -127.5,18 -56.5,18 -92.5,36 -9,5 -14.5,14 -5.5,9 -5.5,20 z m 240,-240 q -66,0 -113,-47 -47,-47 -47,-113 h -10 q -9,0 -14.5,-5.5 -5.5,-5.5 -5.5,-14.5 0,-9 5.5,-14.5 5.5,-5.5 14.5,-5.5 h 10 q 0,-45 22,-81 22,-36 58,-57 v 38 q 0,9 5.5,14.5 5.5,5.5 14.5,5.5 9,0 14.5,-5.5 5.5,-5.5 5.5,-14.5 v -54 q 9,-3 19,-4.5 10,-1.5 21,-1.5 11,0 21,1.5 10,1.5 19,4.5 v 54 q 0,9 5.5,14.5 5.5,5.5 14.5,5.5 9,0 14.5,-5.5 5.5,-5.5 5.5,-14.5 v -38 q 36,21 58,57 22,36 22,81 h 10 q 9,0 14.5,5.5 5.5,5.5 5.5,14.5 0,9 -5.5,14.5 -5.5,5.5 -14.5,5.5 h -10 q 0,66 -47,113 -47,47 -113,47 z m 0,-80 q 33,0 56.5,-23.5 Q 442,-567 442,-600 H 282 q 0,33 23.5,56.5 23.5,23.5 56.5,23.5 z m 300,160 -6,-30 q -6,-2 -11.5,-4.5 Q 639,-397 634,-402 l -28,10 -20,-36 22,-20 v -24 l -22,-20 20,-36 28,10 q 4,-4 10,-7 6,-3 12,-5 l 6,-30 h 40 l 6,30 q 6,2 12,5 6,3 10,7 l 28,-10 20,36 -22,20 v 24 l 22,20 -20,36 -28,-10 q -5,5 -10.5,7.5 -5.5,2.5 -11.5,4.5 l -6,30 z m 20,-70 q 12,0 21,-9 9,-9 9,-21 0,-12 -9,-21 -9,-9 -21,-9 -12,0 -21,9 -9,9 -9,21 0,12 9,21 9,9 21,9 z m 72,-130 -8,-42 q -9,-3 -16.5,-7.5 Q 722,-614 716,-620 l -42,14 -28,-48 34,-30 q -2,-5 -2,-8 v -16 q 0,-3 2,-8 l -34,-30 28,-48 42,14 q 6,-6 13.5,-10.5 7.5,-4.5 16.5,-7.5 l 8,-42 h 56 l 8,42 q 9,3 16.5,7.5 7.5,4.5 13.5,10.5 l 42,-14 28,48 -34,30 q 2,5 2,8 v 16 q 0,3 -2,8 l 34,30 -28,48 -42,-14 q -6,6 -13.5,10.5 -7.5,4.5 -16.5,7.5 l -8,42 z m 28,-90 q 21,0 35.5,-14.5 Q 832,-679 832,-700 832,-721 817.5,-735.5 803,-750 782,-750 q -21,0 -35.5,14.5 -14.5,14.5 -14.5,35.5 0,21 14.5,35.5 14.5,14.5 35.5,14.5 z m -420,450 z"
           id="path1" /></g><path
         style="fill:#002a60;fill-opacity:1;stroke:#ffffff;stroke-width:0.076156;stroke-miterlimit:4.3;paint-order:stroke markers fill"
         d="m 271.12692,465.27195 c 0,-2.04822 0.0912,-2.40273 0.79951,-3.10663 0.77664,-0.77186 2.98024,-1.64211 4.96794,-1.96197 1.38488,-0.22284 3.75601,-0.15851 5.09443,0.13823 0.88371,0.19592 2.57081,0.79577 3.3358,1.18604 0.58035,0.29607 1.14175,0.87942 1.41297,1.46821 0.23919,0.51926 0.24475,0.56503 0.27362,2.25168 l 0.0295,1.72164 h -7.95687 -7.95688 z m 13.94319,-0.84192 c 0,-0.92176 -0.2512,-1.1237 -2.27322,-1.82752 -2.09944,-0.73077 -4.39806,-0.83646 -6.52629,-0.30009 -0.72133,0.18179 -2.49731,0.8592 -2.83822,1.08257 -0.2788,0.18267 -0.43503,0.59869 -0.43503,1.15838 v 0.47033 h 6.03638 6.03638 z"
         id="path2"
         transform="scale(0.26458333)" /><path
         style="fill:#002a66;fill-opacity:1;stroke:#ffffff;stroke-width:0.0279921;stroke-miterlimit:4.3;paint-order:stroke markers fill"
         d="m 278.42187,458.93832 c -0.65682,-0.10474 -1.20987,-0.33875 -1.73626,-0.73467 -0.24798,-0.18652 -0.66935,-0.60942 -0.85529,-0.85841 -0.43909,-0.58797 -0.70292,-1.30639 -0.75575,-2.05791 l -0.0213,-0.30296 -0.1907,-4e-5 c -0.36165,-10e-5 -0.53445,-0.15668 -0.53445,-0.48433 0,-0.32688 0.17295,-0.48423 0.53232,-0.48433 l 0.18856,-5e-5 0.037,-0.38281 c 0.0599,-0.62014 0.21222,-1.10686 0.50083,-1.60019 0.28508,-0.48729 0.76254,-1.00053 1.21241,-1.30326 l 0.21642,-0.14564 0.0156,0.55749 c 0.017,0.60778 0.027,0.64225 0.23078,0.79436 0.12223,0.0913 0.44746,0.0913 0.56968,0 0.2144,-0.16007 0.21423,-0.1593 0.22448,-1.01171 l 0.009,-0.77484 0.25631,-0.0588 c 0.35755,-0.082 1.09238,-0.0821 1.44968,-10e-5 l 0.25586,0.0587 0.01,0.77494 c 0.009,0.72563 0.0139,0.78043 0.0742,0.86116 0.12545,0.16788 0.22104,0.21508 0.43556,0.21508 0.21451,0 0.31007,-0.0472 0.43557,-0.21504 0.0579,-0.0774 0.066,-0.14339 0.0801,-0.64932 l 0.0156,-0.56314 0.26763,0.19047 c 0.706,0.50244 1.32081,1.34544 1.52895,2.0964 0.0798,0.28809 0.15612,0.77207 0.15637,0.99219 l 1.8e-4,0.16406 0.19531,5e-5 c 0.3548,9e-5 0.55469,0.17462 0.55469,0.48433 0,0.30794 -0.20018,0.48424 -0.54994,0.48433 l -0.19056,4e-5 -0.0207,0.32032 c -0.0744,1.15358 -0.66184,2.19877 -1.64594,2.92844 -0.30841,0.22867 -0.857,0.50366 -1.18665,0.59483 -0.5484,0.15167 -1.23677,0.1947 -1.76563,0.11036 z m 1.23438,-2.01381 c 0.74759,-0.23365 1.32271,-0.94474 1.39524,-1.72508 l 0.02,-0.21506 h -2.02375 -2.02375 l 0.0224,0.21094 c 0.0541,0.50859 0.2558,0.90416 0.65403,1.28243 0.26487,0.2516 0.56252,0.41158 0.90895,0.48853 0.2877,0.0639 0.77041,0.0446 1.04688,-0.0418 z"
         id="path15"
         transform="scale(0.26458333)" /><path
         style="fill:#002a66;fill-opacity:1;stroke:#ffffff;stroke-width:0.0279921;stroke-miterlimit:4.3;paint-order:stroke markers fill"
         d="m 286.55129,460.93047 c -0.009,-0.0305 -0.0389,-0.175 -0.0669,-0.3211 -0.028,-0.14609 -0.0574,-0.28826 -0.0653,-0.31592 -0.008,-0.0277 -0.10415,-0.0885 -0.21399,-0.13519 -0.10984,-0.0467 -0.2242,-0.11193 -0.25413,-0.145 -0.0732,-0.0809 -0.10567,-0.0774 -0.46115,0.0496 -0.16888,0.0604 -0.31859,0.10261 -0.33271,0.0939 -0.0316,-0.0195 -0.46962,-0.81104 -0.46962,-0.84866 0,-0.0149 0.11898,-0.13254 0.26439,-0.26138 l 0.2644,-0.23425 V 458.5 458.1875 l -0.2644,-0.23425 c -0.14541,-0.12884 -0.26439,-0.24646 -0.26439,-0.26138 0,-0.0376 0.43799,-0.82911 0.46962,-0.84866 0.0141,-0.009 0.16383,0.0335 0.33271,0.0939 0.16887,0.0604 0.32474,0.10976 0.34638,0.10976 0.0216,10e-6 0.0943,-0.0398 0.16158,-0.0885 0.0672,-0.0487 0.18599,-0.1129 0.26389,-0.14265 0.15601,-0.0596 0.15053,-0.0491 0.22269,-0.42505 0.0281,-0.14609 0.0582,-0.29058 0.0669,-0.32109 0.0145,-0.0506 0.0591,-0.0547 0.50437,-0.0469 l 0.48846,0.009 0.0405,0.20312 c 0.11458,0.57521 0.0881,0.51676 0.26845,0.59156 0.0894,0.0371 0.21684,0.10492 0.28315,0.15077 l 0.12057,0.0834 0.3463,-0.12161 c 0.19047,-0.0669 0.3512,-0.10852 0.35718,-0.0925 0.006,0.016 0.11479,0.21189 0.2418,0.43533 l 0.23093,0.40625 -0.27899,0.26058 -0.27898,0.26058 v 0.29134 0.29134 l 0.27898,0.26058 0.27899,0.26058 -0.23093,0.40625 c -0.12701,0.22344 -0.23582,0.41933 -0.2418,0.43533 -0.006,0.016 -0.16472,-0.0244 -0.35275,-0.0898 l -0.34187,-0.11887 -0.184,0.11223 c -0.1012,0.0617 -0.23045,0.12756 -0.28722,0.1463 -0.11168,0.0369 -0.0979,7e-5 -0.20981,0.56168 l -0.0405,0.20313 -0.48846,0.009 c -0.44527,0.008 -0.48986,0.004 -0.50437,-0.0469 z m 0.86954,-1.77196 c 0.36117,-0.21165 0.49082,-0.63346 0.3044,-0.99031 -0.15331,-0.29346 -0.45301,-0.45979 -0.76261,-0.42324 -0.43154,0.0509 -0.74263,0.47499 -0.6553,0.89323 0.0573,0.27416 0.26911,0.51512 0.52498,0.59709 0.15509,0.0497 0.43508,0.0132 0.58853,-0.0768 z"
         id="path16"
         transform="scale(0.26458333)" /><path
         style="fill:#002a66;fill-opacity:1;stroke:#ffffff;stroke-width:0.0279921;stroke-miterlimit:4.3;paint-order:stroke markers fill"
         d="m 288.76649,455.48381 c -0.0504,-0.27532 -0.0993,-0.51125 -0.10875,-0.5243 -0.009,-0.0131 -0.0804,-0.0508 -0.15774,-0.0839 -0.14355,-0.0614 -0.39092,-0.21427 -0.53133,-0.32837 l -0.0782,-0.0635 -0.51332,0.17181 c -0.28233,0.0945 -0.51893,0.16622 -0.52578,0.15937 -0.007,-0.007 -0.16333,-0.27105 -0.34773,-0.58711 l -0.33529,-0.57466 0.40484,-0.35781 0.40484,-0.35782 0.003,-0.43488 0.003,-0.43488 -0.40804,-0.36039 -0.40804,-0.36039 0.33531,-0.57471 c 0.18442,-0.31608 0.34091,-0.5803 0.34776,-0.58715 0.007,-0.007 0.24345,0.0649 0.52578,0.15936 l 0.51332,0.17182 0.0782,-0.0635 c 0.14041,-0.1141 0.38778,-0.26698 0.53133,-0.32837 0.0773,-0.0331 0.14833,-0.0708 0.15774,-0.0839 0.009,-0.013 0.0584,-0.24899 0.10875,-0.5243 l 0.0916,-0.50057 h 0.68977 0.68978 l 0.0722,0.38282 c 0.13835,0.73335 0.1096,0.66087 0.28741,0.7248 0.0864,0.0311 0.26116,0.13117 0.3884,0.22246 l 0.23134,0.16598 0.50722,-0.16978 c 0.27898,-0.0934 0.51704,-0.15929 0.52904,-0.14646 0.0277,0.0296 0.65459,1.10443 0.6626,1.13605 0.003,0.0129 -0.17509,0.18332 -0.39638,0.37863 l -0.40234,0.35509 v 0.43479 0.43479 l 0.40234,0.35509 c 0.22129,0.19531 0.39951,0.36614 0.39604,0.37964 -0.009,0.0332 -0.63389,1.10566 -0.66187,1.13504 -0.0122,0.0128 -0.25045,-0.0531 -0.52943,-0.14646 l -0.50722,-0.16978 -0.23134,0.16598 c -0.12724,0.0913 -0.30202,0.19139 -0.3884,0.22245 -0.17781,0.0639 -0.14906,-0.009 -0.28741,0.72481 l -0.0722,0.38281 h -0.68978 -0.68977 z m 1.24244,-1.80096 c 0.31273,-0.11822 0.62455,-0.43531 0.73298,-0.74535 0.074,-0.21156 0.074,-0.66345 0,-0.875 -0.11077,-0.31672 -0.42422,-0.63088 -0.75007,-0.75176 -0.11992,-0.0445 -0.24313,-0.0607 -0.46059,-0.0605 -0.26854,2.1e-4 -0.31698,0.01 -0.50752,0.0998 -0.79946,0.37784 -0.98826,1.42281 -0.36897,2.0421 0.16376,0.16376 0.40458,0.3 0.60633,0.34301 0.1882,0.0401 0.57496,0.0131 0.74784,-0.0523 z"
         id="path17"
         transform="scale(0.26458333)" /></g></g></svg>
