<?xml version="1.0" encoding="UTF-8" standalone="no"?>
<!-- Created with Inkscape (http://www.inkscape.org/) -->

<svg
   width="128.9953mm"
   height="129.00948mm"
   viewBox="0 0 128.9953 129.00948"
   version="1.1"
   id="svg1"
   xml:space="preserve"
   xmlns="http://www.w3.org/2000/svg"
   xmlns:svg="http://www.w3.org/2000/svg"><defs
     id="defs1" /><g
     id="layer1"
     transform="translate(-30.462015,-88.197051)"><path
       style="fill:#002a66;fill-opacity:1;stroke:#ffffff;stroke-width:0.861606;stroke-miterlimit:4.3;paint-order:stroke markers fill"
       d="m 130.0678,819.50252 c -5.70522,-1.70869 -10.23245,-5.42319 -12.61938,-10.35391 -3.33167,-6.88232 -2.21341,-14.56066 2.98245,-20.47842 6.37767,-7.26377 -8.91048,-6.59599 164.768,-7.1969 153.84661,-0.53228 155.94265,-0.56485 165.06182,-2.5646 44.28234,-9.71073 78.97851,-36.33507 98.7426,-75.77082 10.93991,-21.82865 16.15986,-49.85505 13.80637,-74.12766 -3.36829,-34.7387 -16.49973,-62.95936 -40.49592,-87.02943 -19.88438,-19.94558 -43.65099,-32.84595 -71.15556,-38.62278 -7.71272,-1.61992 -14.16188,-2.00426 -40.53352,-2.41563 l -31.36144,-0.4892 -0.67572,13.32988 c -0.37163,7.33143 -0.59612,25.66605 -0.49884,40.7436 0.21657,33.56881 -0.35968,36.4946 -9.04691,45.93467 -5.0677,5.50686 -9.57984,8.36206 -16.30386,10.31678 -4.56593,1.32735 -10.76234,1.50466 -44.12056,1.26247 l -38.80861,-0.28177 -5.57968,-2.73982 c -10.22587,-5.02127 -17.60385,-14.42209 -19.94686,-25.41576 -0.6278,-2.9457 -0.87689,-42.84991 -0.70687,-113.2415 l 0.26251,-108.693 2.32054,-5.7713 c 3.18766,-7.92789 11.91948,-16.64515 19.80282,-19.76981 5.74114,-2.27558 5.97744,-2.28771 45.20859,-2.32054 l 39.43728,-0.033 6.37093,3.0186 c 8.29601,3.93071 13.26644,8.52548 17.26593,15.96099 l 3.24318,6.02942 0.72853,24.04712 c 0.4007,13.22592 0.46085,35.14117 0.13368,48.70056 -0.32718,13.5594 -0.31027,25.78736 0.0376,27.17325 l 0.63243,2.51981 22.3455,0.0281 c 38.52582,0.0484 55.39879,2.1211 77.70102,9.54505 73.99209,24.63044 123.07413,92.54594 123.07413,170.29937 0,28.03667 -5.21937,51.10477 -17.34935,76.67908 -7.4038,15.60983 -19.52057,34.108 -27.69813,42.28556 -3.78785,3.78784 -4.97053,6.31299 -4.97053,10.61256 0,8.49937 4.758,10.858 21.9036,10.858 11.42418,0 12.72821,0.19019 17.45556,2.54593 12.36501,6.16175 14.46914,21.64232 4.25422,31.29931 -1.5033,1.4212 -3.96663,3.05003 -5.47407,3.61962 -4.35287,1.64475 -454.73776,2.14014 -460.19345,0.50617 z"
       id="path2"
       transform="scale(0.26458333)" /><path
       style="fill:#002a66;fill-opacity:1;stroke:#ffffff;stroke-width:0.861606;stroke-miterlimit:4.3;paint-order:stroke markers fill"
       d="m 217.57653,706.827 c -3.60286,-1.78446 -5.96185,-5.6429 -5.96185,-9.75137 0,-3.39286 3.52176,-8.86247 6.76206,-10.50209 1.84948,-0.93584 22.3044,-1.20533 92.32709,-1.21636 85.30619,-0.0134 90.12433,0.0767 93.30284,1.74539 4.75352,2.49558 7.12892,7.57119 5.81937,12.43446 -0.55183,2.04937 -2.1251,4.78006 -3.49614,6.0682 l -2.4928,2.34206 -91.54225,0.2264 c -83.09051,0.20549 -91.8355,0.0811 -94.71832,-1.34669 z"
       id="path3"
       transform="scale(0.26458333)" /></g></svg>
