<?xml version="1.0" encoding="UTF-8" standalone="no"?>
<!-- Created with Inkscape (http://www.inkscape.org/) -->

<svg
   width="193.7034mm"
   height="193.68317mm"
   viewBox="0 0 193.7034 193.68317"
   version="1.1"
   id="svg1"
   xml:space="preserve"
   xmlns="http://www.w3.org/2000/svg"
   xmlns:svg="http://www.w3.org/2000/svg"><defs
     id="defs1" /><g
     id="layer1"
     transform="translate(-8.1878923,-51.589676)"><g
       id="layer1-4"
       transform="translate(0.05907783,0.06754892)"><path
         style="fill:#001129;fill-opacity:1;stroke:#ffffff;stroke-width:0.861606;stroke-miterlimit:4.3;paint-order:stroke markers fill"
         d="M 247.20442,926.16224 C 192.64701,923.55286 163.52749,917.67552 137.64098,904.0485 93.840723,880.99144 58.16281,840.24379 44.331409,797.47987 37.867033,777.49332 35.146244,760.83925 32.53299,725.26122 30.73578,700.79317 30.698107,422.51678 32.48859,397.25847 c 2.206503,-31.1272 4.877034,-49.0822 9.943055,-66.851 12.382599,-43.43132 47.306228,-85.96709 90.104735,-109.74447 26.82432,-14.90266 50.66684,-20.62488 100.72071,-24.17304 24.93458,-1.76753 303.40719,-1.75401 327.87726,0.0159 35.08734,2.53788 52.34955,5.35993 72.34415,11.82691 32.80805,10.61131 66.52804,35.60144 89.47989,66.3142 24.51475,32.80414 33.57027,60.13808 38.07092,114.9164 1.81314,22.06798 1.83312,322.35683 0.0228,343.39291 -3.41866,39.72627 -8.75896,62.8082 -19.55435,84.51792 -14.85806,29.87984 -38.32389,56.48389 -66.66829,75.58423 -28.81253,19.41578 -54.03173,27.18902 -103.46989,31.89216 -8.60871,0.81897 -55.46041,1.19592 -164.96326,1.32725 -84.11683,0.10087 -155.75321,0.0489 -159.19195,-0.11562 z m 295.29867,-65.77249 c 55.85955,-2.31904 75.45746,-7.03676 99.07414,-23.84967 8.89198,-6.33028 22.30666,-19.52568 29.25231,-28.77415 18.16315,-24.18509 23.11911,-43.72721 25.55836,-100.78052 1.24653,-29.1561 1.24169,-262.81892 -0.006,-292.41302 -1.61623,-38.33364 -5.05621,-61.27583 -11.51354,-76.78706 -7.16729,-17.21658 -24.75526,-38.69172 -42.18589,-51.50952 -16.91222,-12.43657 -33.71953,-18.67142 -58.35462,-21.64724 -29.55379,-3.56998 -44.92656,-3.89173 -186.58838,-3.90526 -141.54062,-0.0135 -160.42527,0.37527 -188.0485,3.87135 -32.64456,4.1316 -51.15846,13.05009 -73.65129,35.47922 -27.30591,27.22856 -34.37092,46.5016 -38.09367,103.91778 -1.737345,26.79518 -1.758844,288.24164 -0.02582,314.05542 3.07002,45.72879 7.52452,63.61446 20.82173,83.60324 13.58317,20.41865 36.27781,39.62311 56.57199,47.87185 13.83386,5.62289 39.05072,9.40101 71.89057,10.771 27.06996,1.12929 268.52122,1.20826 295.29867,0.0966 z"
         id="path7"
         transform="scale(0.26458333)" /><path
         style="fill:#001129;fill-opacity:1;stroke:#ffffff;stroke-width:0.861606;stroke-miterlimit:4.3;paint-order:stroke markers fill"
         d="m 378.98265,759.71706 c -47.26751,-4.84498 -89.31299,-24.57501 -122.39509,-57.43444 -30.73936,-30.53246 -50.28074,-69.12666 -57.05318,-112.67997 -2.21862,-14.26784 -2.22373,-42.34945 -0.0103,-56.71841 5.29614,-34.38131 18.44279,-65.63275 39.13688,-93.03382 7.72546,-10.2293 26.9588,-29.46264 37.18809,-37.1881 27.41191,-20.70226 58.66784,-33.85808 93.03382,-39.15854 14.41152,-2.22277 42.46158,-2.21282 56.71841,0.0201 65.09607,10.19548 119.37684,49.24521 149.02664,107.21014 13.57663,26.54211 20.27954,52.43694 21.44086,82.83072 4.00829,104.90379 -73.9401,194.62005 -178.81328,205.80875 -8.71532,0.92981 -30.6338,1.12656 -38.27284,0.34355 z m 44.31647,-67.56671 c 12.42635,-2.4638 22.41896,-5.99814 34.88784,-12.33965 36.65798,-18.64381 62.54498,-53.37719 70.43419,-94.50373 2.5828,-13.4641 2.39393,-37.56253 -0.39718,-50.68019 -11.28743,-53.04867 -51.22906,-93.27642 -104.03273,-104.77795 -11.57397,-2.52101 -42.17399,-2.55933 -53.86555,-0.0675 -26.15842,5.57526 -49.17112,18.02295 -67.84694,36.69876 -18.67581,18.67581 -31.1235,41.68851 -36.69875,67.84694 -2.49187,11.69155 -2.45355,42.29157 0.0675,53.86555 3.67346,16.86492 11.42086,34.8643 21.06824,48.94744 6.27803,9.16458 20.16177,23.67794 29.03985,30.35677 18.82466,14.16147 41.97406,23.60626 64.80197,26.43873 10.2999,1.278 31.60022,0.38416 42.5416,-1.78521 z"
         id="path8"
         transform="scale(0.26458333)" /><path
         style="fill:#001129;fill-opacity:1;stroke:#ffffff;stroke-width:0.861606;stroke-miterlimit:4.3;paint-order:stroke markers fill"
         d="m 589.38004,392.90217 c -9.1449,-2.29813 -17.73407,-9.27349 -21.90854,-17.79214 -3.41825,-6.97548 -3.78252,-18.11912 -0.84791,-25.93872 2.93095,-7.80985 10.8018,-15.73236 18.48608,-18.60742 7.31856,-2.73822 16.0856,-2.75279 23.48692,-0.039 7.61455,2.79194 16.56579,11.76913 19.11182,19.16723 5.52725,16.06072 -1.38144,33.01536 -16.48241,40.44954 -6.7004,3.2986 -15.35371,4.39206 -21.84596,2.76054 z"
         id="path9"
         transform="scale(0.26458333)" /></g></g></svg>
