<?xml version="1.0" encoding="UTF-8" standalone="no"?>
<!-- Created with Inkscape (http://www.inkscape.org/) -->

<svg
   width="4.764801mm"
   height="4.8897939mm"
   viewBox="0 0 4.764801 4.8897939"
   version="1.1"
   id="svg1"
   xml:space="preserve"
   xmlns="http://www.w3.org/2000/svg"
   xmlns:svg="http://www.w3.org/2000/svg"><defs
     id="defs1" /><g
     id="layer1"
     transform="translate(-41.009821,-131.69759)"><path
       style="fill:#002a66;fill-opacity:1;stroke:#ffffff;stroke-width:0.038078;stroke-miterlimit:4.3;paint-order:stroke markers fill"
       d="m 156.01063,514.75006 v -1.46658 h 1.55615 c 1.34287,0 1.55291,-0.008 1.53247,-0.0617 -0.013,-0.034 -0.59158,-1.92297 -1.28568,-4.19783 -0.69411,-2.27487 -1.27862,-4.14253 -1.29892,-4.15037 -0.0203,-0.008 -0.15042,-0.0978 -0.28915,-0.19995 -0.50062,-0.36853 -0.96841,-1.0762 -1.13697,-1.71999 -0.0959,-0.36622 -0.0947,-1.07455 0.002,-1.44533 0.20817,-0.79479 0.78079,-1.51827 1.50879,-1.90628 0.76908,-0.40992 1.81794,-0.42904 2.63515,-0.048 0.61216,0.2854 1.15758,0.84407 1.43379,1.46864 l 0.10199,0.23061 h 1.6159 1.61591 v -0.60804 c 0,-0.57168 0.007,-0.62149 0.11201,-0.83284 0.19886,-0.39904 0.63625,-0.60886 1.0677,-0.51217 0.22577,0.0506 0.44977,0.1765 0.53792,0.30235 0.0567,0.0809 0.10532,0.042 0.96706,-0.77343 1.02673,-0.97159 1.20492,-1.08974 1.58195,-1.04888 0.16422,0.0178 0.72242,0.2567 2.2586,0.96664 1.12225,0.51865 2.0935,0.98073 2.15833,1.02685 0.18667,0.13282 0.29899,0.39388 0.27534,0.63999 -0.0354,0.36817 -0.31747,0.62698 -0.68338,0.62698 -0.18785,0 -0.44069,-0.10395 -2.08043,-0.85537 l -1.86659,-0.85538 -0.17693,0.16734 c -0.0973,0.092 -0.63125,0.59309 -1.18653,1.11346 l -1.00961,0.94613 0.003,0.70901 0.003,0.709 0.93496,0.8502 c 0.51423,0.46761 1.04733,0.95115 1.18468,1.07454 l 0.24971,0.22434 1.86008,-0.85136 c 1.60419,-0.73424 1.88846,-0.85136 2.06633,-0.85136 0.24232,0 0.40497,0.0746 0.55718,0.25546 0.22527,0.26772 0.22921,0.58242 0.0109,0.86868 -0.11749,0.15403 -0.0693,0.12933 -2.59778,1.33198 -1.96458,0.93443 -2.01086,0.9491 -2.40846,0.76343 -0.16563,-0.0774 -0.47259,-0.33789 -1.13351,-0.96212 l -0.90637,-0.85604 -0.17649,0.15107 c -0.24592,0.2105 -0.56389,0.29862 -0.83919,0.23258 -0.29464,-0.0707 -0.51874,-0.24752 -0.65164,-0.51421 -0.10531,-0.21134 -0.11201,-0.26115 -0.11201,-0.83283 v -0.60804 h -1.61591 -1.6159 l -0.10312,0.22317 c -0.0567,0.12275 -0.14615,0.29464 -0.19876,0.38198 -0.0876,0.14537 -0.0905,0.16912 -0.0345,0.28103 0.0336,0.0672 1.15983,2.15262 2.50266,4.63418 l 2.44152,4.51193 h 1.79883 1.79882 v 1.46658 1.46659 h -6.48273 -6.48273 z m 7.09204,-1.5016 c -0.008,-0.0193 -0.97769,-1.82698 -2.15532,-4.01717 -1.89568,-3.52562 -2.25861,-4.15858 -2.25861,-3.93905 0,0.0237 0.54519,1.82227 1.21153,3.99681 0.66634,2.17454 1.21153,3.96287 1.21153,3.97407 0,0.0112 0.45113,0.0204 1.00252,0.0204 0.55138,0 0.99614,-0.0158 0.98835,-0.035 z m -4.58393,-10.13543 c 0.63393,-0.38066 0.63393,-1.34098 0,-1.72164 -0.19898,-0.11949 -0.26884,-0.13816 -0.5169,-0.13816 -0.31564,0 -0.44673,0.0428 -0.68069,0.22223 -0.22071,0.16927 -0.34346,0.44434 -0.34328,0.76927 3.3e-4,0.62317 0.38538,1.00635 1.01134,1.00642 0.26234,3e-5 0.32797,-0.0171 0.52953,-0.13812 z"
       id="path2"
       transform="scale(0.26458333)" /></g></svg>
